<?xml version="1.0" encoding="UTF-8"?>
<!-- Generator: visioncortex VTracer 0.6.4 -->
<svg version="1.1" xmlns="http://www.w3.org/2000/svg" width="1774" height="887">
<path d="M0 0 C585.42 0 1170.84 0 1774 0 C1774 292.71 1774 585.42 1774 887 C1188.58 887 603.16 887 0 887 C0 594.29 0 301.58 0 0 Z " fill="#6905F3" transform="translate(0,0)"/>
<path d="M0 0 C2.76 -0 5.52 -0.01 8.28 -0.02 C14.98 -0.03 21.67 -0.02 28.37 0 C36.17 0.03 43.97 0.02 51.77 0.02 C65.69 0.02 79.61 0.04 93.53 0.07 C107.03 0.11 120.53 0.12 134.03 0.11 C148.75 0.11 163.47 0.11 178.19 0.13 C179.36 0.13 179.36 0.13 180.55 0.13 C182.11 0.13 183.67 0.14 185.24 0.14 C190.67 0.15 196.11 0.15 201.55 0.15 C208.17 0.14 214.79 0.15 221.41 0.18 C224.79 0.19 228.16 0.19 231.54 0.19 C235.2 0.19 238.86 0.2 242.52 0.22 C244.12 0.21 244.12 0.21 245.76 0.2 C252.12 0.26 256.51 0.98 261.64 5.05 C264.43 8.73 264.33 13.17 263.82 17.62 C259.93 25.79 252.86 32.92 247.18 39.93 C245.54 41.97 243.93 44.04 242.32 46.12 C239.83 49.35 237.29 52.54 234.73 55.72 C229.86 61.77 225.08 67.87 220.39 74.05 C216.05 79.77 211.62 85.38 207.07 90.93 C202.66 96.32 198.39 101.78 194.25 107.38 C189.5 113.76 184.55 120 179.66 126.27 C176.71 130.05 173.77 133.83 170.82 137.62 C169.66 139.12 168.49 140.62 167.32 142.12 C166.75 142.86 166.17 143.6 165.57 144.37 C160.32 151.12 160.32 151.12 158.57 153.37 C157.41 154.86 156.25 156.36 155.09 157.85 C152.11 161.68 149.13 165.5 146.15 169.33 C135.13 183.21 135.13 183.21 124.82 197.62 C125.48 197.6 126.14 197.59 126.82 197.58 C142.86 197.32 158.9 197.12 174.95 196.99 C182.71 196.93 190.47 196.85 198.23 196.71 C205 196.59 211.76 196.51 218.53 196.49 C222.11 196.47 225.69 196.43 229.27 196.35 C255.07 195.74 255.07 195.74 263.35 203.41 C265.28 205.41 267.03 207.49 268.82 209.62 C270.58 211.13 272.37 212.62 274.2 214.05 C275.07 214.76 275.95 215.48 276.85 216.21 C277.83 217 278.81 217.8 279.82 218.62 C282.47 220.76 285.12 222.91 287.76 225.05 C288.44 225.61 289.13 226.16 289.83 226.73 C295.87 231.64 301.86 236.62 307.82 241.62 C309.82 243.28 311.82 244.95 313.82 246.62 C312.87 249.13 312.38 250.36 309.89 251.51 C309.09 251.69 308.29 251.88 307.47 252.07 C306.55 252.29 305.64 252.52 304.69 252.74 C303.68 252.97 302.68 253.2 301.64 253.43 C300.58 253.68 299.52 253.93 298.43 254.19 C294.9 255.02 291.36 255.82 287.82 256.62 C286.6 256.89 285.37 257.17 284.11 257.46 C278.93 258.62 273.76 259.79 268.58 260.94 C260.18 262.82 251.84 264.85 243.51 266.99 C227.22 271.16 210.75 274.55 194.3 278.03 C186.67 279.64 179.06 281.3 171.45 282.99 C170.42 283.22 169.4 283.44 168.34 283.68 C163.47 284.76 158.62 285.91 153.78 287.14 C148.2 288.55 142.6 289.71 136.95 290.8 C115.55 295.01 94.21 299.56 72.89 304.18 C71.6 304.46 71.6 304.46 70.28 304.74 C65.5 305.78 60.74 306.86 55.98 307.98 C53.19 308.64 50.39 309.29 47.59 309.94 C45.57 310.41 43.56 310.9 41.55 311.38 C31.71 313.67 22.69 315.37 13.2 311.12 C5.7 306.37 1.4 297.51 -3.05 290.09 C-5.27 286.42 -7.65 282.86 -10.05 279.3 C-14.83 272.2 -19.38 264.97 -23.89 257.69 C-25.24 255.5 -26.62 253.33 -27.99 251.15 C-28.68 250.06 -28.68 250.06 -29.38 248.95 C-30.27 247.55 -31.15 246.15 -32.04 244.75 C-35.75 238.86 -36.94 234.49 -36.18 227.62 C-33.76 221.29 -29.21 217.68 -24.12 213.34 C-21.92 211.39 -20.01 209.31 -18.11 207.06 C-13.75 202.04 -9.05 197.39 -4.33 192.71 C-2.91 191.3 -1.5 189.88 -0.08 188.47 C2.89 185.52 5.85 182.58 8.82 179.63 C11.27 177.2 13.72 174.76 16.17 172.32 C18 170.5 19.82 168.69 21.65 166.87 C26.04 162.5 30.26 158.06 34.3 153.37 C36.38 150.98 38.6 148.75 40.86 146.52 C41.75 145.64 42.64 144.75 43.56 143.84 C45.4 142.02 47.25 140.21 49.09 138.39 C53.7 133.82 58.16 129.21 62.39 124.28 C64.11 122.29 65.93 120.44 67.82 118.62 C70.44 116.04 72.93 113.4 75.32 110.62 C78.34 107.1 81.56 103.86 84.86 100.62 C86.76 98.68 88.55 96.68 90.32 94.62 C93.27 91.19 96.39 88 99.64 84.87 C102.19 82.24 104.57 79.49 106.97 76.73 C109.87 73.43 112.87 70.24 115.89 67.05 C117.2 65.66 118.52 64.26 119.83 62.86 C120.49 62.16 121.16 61.46 121.84 60.73 C123.77 58.67 125.7 56.6 127.63 54.53 C133.59 48.11 139.56 41.74 145.82 35.62 C140.17 37.46 134.57 39.42 128.98 41.47 C117.03 45.84 105.01 49.93 92.94 53.93 C79.63 58.33 66.35 62.83 53.07 67.37 C34.06 73.86 15.01 80.24 -4.06 86.56 C-5.04 86.89 -6.01 87.21 -7.02 87.55 C-8.84 88.15 -10.67 88.76 -12.49 89.36 C-15.73 90.43 -18.93 91.52 -22.1 92.79 C-27.87 95.08 -34.6 94.12 -40.3 92.05 C-52.16 86.71 -60.29 77.51 -65.18 65.62 C-67.03 60.22 -67.53 55.44 -67.49 49.8 C-67.48 49.01 -67.48 48.21 -67.47 47.39 C-67.19 33.91 -61.49 23.45 -52.36 13.65 C-48.64 10.19 -44.67 7.91 -40.18 5.62 C-39.38 5.17 -38.59 4.73 -37.77 4.27 C-25.9 -1.35 -12.83 -0.07 0 0 Z " fill="#F4EEFC" transform="translate(962.175537109375,220.384765625)"/>
<path d="M0 0 C9.49 6.88 16.04 17.45 22.74 26.92 C25.75 31.18 28.81 35.4 31.88 39.62 C36.63 46.19 41.32 52.79 45.98 59.42 C49.61 64.58 53.3 69.7 57 74.81 C62.74 82.74 68.4 90.71 74.02 98.72 C75.49 100.8 76.96 102.88 78.43 104.95 C86.75 116.73 95.02 128.55 103.29 140.37 C105.07 142.92 106.85 145.46 108.62 148 C109.5 149.24 109.5 149.24 110.38 150.51 C114.14 155.87 117.91 161.22 121.69 166.56 C125.87 172.47 129.99 178.42 134.09 184.39 C138.09 190.23 142.14 196.06 146.19 201.88 C146.87 202.85 147.55 203.83 148.25 204.83 C151.66 209.74 155.08 214.64 158.52 219.52 C165.95 230.08 173.09 240.76 179.99 251.68 C185.97 261.09 192.18 270.33 198.44 279.56 C198.92 280.28 199.41 280.99 199.91 281.73 C201.32 283.82 202.74 285.9 204.15 287.98 C204.6 288.65 205.05 289.31 205.52 290 C207.7 293.21 209.91 296.4 212.19 299.54 C212.61 300.13 213.04 300.72 213.47 301.32 C214.61 302.9 215.77 304.48 216.92 306.05 C218.6 308.99 218.95 310.49 218.5 313.81 C217.5 314.81 217.5 314.81 214.4 315.19 C209.35 314.7 206.99 312.85 203.06 309.81 C201.56 308.7 200.05 307.6 198.54 306.49 C197.73 305.9 196.92 305.3 196.09 304.69 C142.74 266.04 79.95 240.75 17.95 219.41 C14.27 218.14 10.61 216.86 6.98 215.43 C-14.61 206.97 -42.16 200.98 -64.16 210.27 C-66.07 211.15 -67.97 212.05 -69.84 213.01 C-71.5 213.81 -71.5 213.81 -73.5 213.81 C-74.85 215.53 -74.85 215.53 -76.19 217.75 C-78.22 221 -80.43 224.02 -82.81 227.03 C-86.45 231.66 -89.69 236.48 -92.88 241.44 C-93.44 242.31 -94 243.18 -94.57 244.07 C-98.6 250.33 -102.5 256.66 -106.3 263.06 C-106.65 263.62 -107 264.18 -107.35 264.75 C-108.61 266.92 -108.61 266.92 -109.74 269.8 C-112.03 274.76 -113.7 278.06 -118.89 280.23 C-122.38 281.06 -125.9 281.51 -129.47 281.88 C-131.87 282.13 -134.27 282.45 -136.66 282.78 C-139.16 283.13 -141.65 283.48 -144.14 283.8 C-152.26 284.87 -160.24 286.38 -168.25 288.06 C-168.93 288.2 -169.61 288.34 -170.31 288.49 C-190.5 292.69 -210.64 297.56 -230.47 303.22 C-231.28 303.45 -232.09 303.68 -232.93 303.92 C-234.46 304.36 -236 304.8 -237.53 305.26 C-243.06 306.85 -247.78 307.27 -253.5 306.81 C-252.89 303.56 -251.77 301.51 -249.8 298.86 C-249.24 298.11 -248.67 297.35 -248.09 296.57 C-247.49 295.76 -246.88 294.96 -246.25 294.12 C-245.62 293.29 -245 292.45 -244.35 291.58 C-237.28 282.13 -230.1 272.77 -222.89 263.43 C-215.31 253.6 -207.87 243.68 -200.46 233.73 C-193.48 224.38 -186.33 215.17 -179.08 206.02 C-172.25 197.4 -172.25 197.4 -165.69 188.56 C-160.45 181.28 -154.89 174.26 -149.36 167.2 C-146.32 163.3 -143.28 159.4 -140.25 155.5 C-139.67 154.75 -139.08 154 -138.48 153.22 C-133.46 146.77 -128.48 140.3 -123.5 133.81 C-121.9 131.73 -120.29 129.65 -118.69 127.56 C-114.22 121.75 -109.76 115.93 -105.31 110.1 C-102.11 105.92 -98.9 101.74 -95.69 97.56 C-90.56 90.91 -85.47 84.22 -80.38 77.53 C-76.77 72.78 -73.14 68.04 -69.5 63.31 C-60.3 51.37 -51.15 39.38 -42.12 27.31 C-38.45 22.41 -34.77 17.5 -31.06 12.62 C-30.3 11.62 -29.54 10.62 -28.75 9.58 C-20.76 -0.24 -12.61 -4.28 0 0 Z M-69.5 207.81 C-70.16 209.13 -70.82 210.45 -71.5 211.81 C-70.51 211.15 -69.52 210.49 -68.5 209.81 C-68.83 209.15 -69.16 208.49 -69.5 207.81 Z " fill="#F4EEFC" transform="translate(739.5,238.1875)"/>
<path d="M0 0 C-0.33 0.66 -0.66 1.32 -1 2 C-3.4 2.51 -5.76 2.9 -8.19 3.25 C-16.15 4.52 -23.81 6.48 -31.57 8.67 C-37.8 10.42 -44.06 11.99 -50.38 13.44 C-61.02 15.91 -71.48 18.93 -81.94 22.08 C-85.05 23.01 -88.17 23.94 -91.28 24.86 C-93.31 25.47 -95.34 26.08 -97.38 26.69 C-98.76 27.1 -98.76 27.1 -100.16 27.52 C-105.43 29.11 -110.5 30.96 -115.58 33.05 C-118.6 34.24 -121.67 35.21 -124.77 36.18 C-162.43 48 -201.41 65.55 -231 92 C-231.85 92.76 -231.85 92.76 -232.71 93.53 C-240.39 100.48 -246.13 107.78 -251 117 C-251.53 117.95 -252.05 118.91 -252.6 119.89 C-257.44 129.76 -257.91 141.46 -254.38 151.88 C-253.63 153.6 -252.83 155.31 -252 157 C-251.58 157.9 -251.15 158.8 -250.71 159.73 C-233.24 194.29 -187.67 217.76 -152.58 229.73 C-149.82 230.71 -147.14 231.75 -144.43 232.86 C-138.16 235.4 -131.74 237.47 -125.31 239.56 C-112.16 243.85 -112.16 243.85 -108.23 245.65 C-104.93 247.03 -101.84 247.77 -98.35 248.49 C-94.3 249.37 -90.35 250.63 -86.38 251.81 C-76.82 254.61 -67.21 256.8 -57.46 258.82 C-53.76 259.6 -50.09 260.48 -46.43 261.43 C-38.44 263.46 -30.35 264.9 -22.25 266.38 C-21 266.6 -21 266.6 -19.73 266.84 C40.91 277.87 102.28 284 163.88 285.66 C169.31 285.81 174.69 286.04 180.1 286.5 C189.77 287.2 199.44 287.2 209.14 287.24 C210.15 287.24 211.16 287.25 212.2 287.25 C219.88 287.29 227.57 287.3 235.25 287.31 C236.94 287.32 236.94 287.32 238.67 287.32 C277.6 287.37 316.2 286.26 355 283 C356.08 282.91 357.16 282.82 358.27 282.73 C369.41 281.8 380.52 280.77 391.62 279.49 C394.49 279.16 397.35 278.87 400.22 278.61 C425.23 276.32 450.13 272.7 474.94 268.81 C475.75 268.69 476.56 268.56 477.4 268.43 C479.72 268.07 482.03 267.7 484.34 267.33 C485.35 267.17 485.35 267.17 486.38 267.01 C490.7 266.31 494.8 265.22 499 264 C500.78 263.65 502.57 263.34 504.37 263.07 C505.36 262.91 506.35 262.76 507.37 262.6 C509.38 262.29 511.39 261.98 513.4 261.68 C519.96 260.64 526.36 259.23 532.79 257.58 C537.56 256.35 542.35 255.21 547.16 254.14 C547.85 253.99 548.53 253.84 549.23 253.68 C550.64 253.36 552.05 253.05 553.45 252.74 C574.43 248.04 595.52 243.21 615.82 236.08 C620.32 234.55 624.9 233.32 629.49 232.09 C633.16 230.95 636.66 229.56 640.22 228.11 C643.15 226.94 646.11 225.85 649.07 224.77 C663.97 219.38 678.58 213.57 693 207 C693.9 206.59 694.8 206.19 695.73 205.77 C719.97 194.73 742.82 181.67 762 163 C762.99 162.12 762.99 162.12 764.01 161.21 C772.54 153.43 779.29 142.06 780.31 130.5 C780.83 114.71 774.61 103.76 764.5 92.12 C752.58 79.65 738.24 70.83 723 63 C722.2 62.59 721.41 62.18 720.59 61.75 C677.21 39.62 628.79 28 581.37 18.31 C562.12 14.37 562.12 14.37 553 12 C555.52 9.48 556.38 9.74 559.87 9.71 C560.89 9.7 561.92 9.68 562.97 9.67 C564.65 9.67 564.65 9.67 566.37 9.66 C567.54 9.66 568.71 9.65 569.91 9.64 C573.75 9.62 577.6 9.62 581.44 9.62 C582.75 9.63 584.05 9.63 585.4 9.63 C618.7 9.68 651.36 12.28 684 19 C685.67 19.32 687.34 19.64 689.01 19.96 C728.34 27.62 769.58 40.16 801 66 C801.76 66.62 801.76 66.62 802.53 67.25 C810.58 73.96 816.43 81.12 822 90 C822.44 90.65 822.88 91.29 823.34 91.96 C830.25 102.65 830.68 117.82 828.66 130.08 C822.16 159.51 792.91 182.13 769.12 197.56 C747 211.62 723.57 223.34 699.11 232.77 C696.13 233.95 693.26 235.25 690.38 236.62 C685.46 238.91 680.46 240.44 675.27 241.96 C671.07 243.29 667.08 244.98 663.05 246.75 C659.09 248.37 655.07 249.69 651 251 C649.92 251.35 649.92 251.35 648.82 251.7 C644.06 253.23 639.3 254.72 634.53 256.21 C632.91 256.72 631.29 257.22 629.68 257.73 C614.85 262.38 599.84 266.2 584.79 270.02 C580.87 271.03 576.97 272.07 573.06 273.12 C565.64 275.11 558.19 276.8 550.68 278.42 C547.78 279.05 544.89 279.69 542 280.34 C504.84 288.58 467.29 294.21 429.63 299.62 C427.37 299.95 425.1 300.28 422.84 300.61 C378.53 307.07 333.61 310.2 288.94 312.75 C287.92 312.81 286.91 312.87 285.86 312.93 C255.99 314.64 226.1 315.17 196.18 315.13 C192.23 315.12 188.27 315.13 184.31 315.13 C153.6 315.17 123.01 314.42 92.36 312.33 C88.44 312.06 84.52 311.8 80.61 311.55 C68.61 310.76 56.66 309.89 44.73 308.41 C40.65 307.96 36.6 307.73 32.5 307.56 C24.84 307.2 17.25 306.44 9.62 305.56 C8.02 305.38 8.02 305.38 6.38 305.19 C1.32 304.59 -3.7 303.9 -8.73 303.03 C-13.52 302.2 -18.33 301.59 -23.16 301.05 C-31.96 300.06 -40.66 298.67 -49.38 297.19 C-50.95 296.92 -52.53 296.66 -54.1 296.39 C-58.74 295.6 -63.37 294.8 -68 294 C-68.67 293.88 -69.33 293.77 -70.02 293.65 C-85.49 290.95 -100.78 287.85 -116 284 C-117.15 283.71 -118.31 283.43 -119.5 283.13 C-145.02 276.77 -170.63 269.99 -195 260 C-197.46 259.02 -199.92 258.04 -202.38 257.06 C-204.92 256.05 -207.46 255.03 -210 254 C-211.35 253.46 -211.35 253.46 -212.72 252.91 C-220.1 249.91 -227.19 246.51 -234.25 242.81 C-235.34 242.24 -236.43 241.67 -237.55 241.08 C-268.43 224.75 -300.16 202.9 -311.9 168.34 C-316.78 151.61 -314.11 135.56 -305.94 120.38 C-297.49 105.66 -285.45 93.23 -272 83 C-271.4 82.54 -270.79 82.08 -270.17 81.6 C-226.29 48.38 -171.07 31.33 -118.31 18.31 C-117.15 18.02 -117.15 18.02 -115.97 17.73 C-106.58 15.4 -97.21 13.4 -87.64 11.93 C-83.7 11.38 -83.7 11.38 -80 10 C-77.92 9.68 -75.84 9.41 -73.76 9.16 C-67.27 8.34 -60.82 7.36 -54.37 6.31 C-53.43 6.16 -52.5 6.01 -51.54 5.85 C-47.68 5.22 -43.82 4.59 -39.96 3.96 C-26.64 1.77 -13.54 -0.27 0 0 Z " fill="#FCFAFD" transform="translate(624,325)"/>
<path d="M0 0 C0.66 0 1.32 0 2 0 C0.43 5.15 -2.79 8.7 -6.19 12.75 C-7.38 14.19 -8.57 15.64 -9.76 17.08 C-10.33 17.77 -10.9 18.45 -11.48 19.16 C-15.39 23.9 -19.09 28.81 -22.82 33.69 C-23.34 34.37 -23.86 35.06 -24.4 35.77 C-25.52 37.22 -26.63 38.68 -27.74 40.14 C-31.88 45.55 -36.06 50.94 -40.25 56.31 C-49.42 67.94 -49.42 67.94 -58 80 C-57.34 79.99 -56.69 79.98 -56.01 79.97 C-39.96 79.7 -23.92 79.5 -7.88 79.38 C-0.12 79.32 7.64 79.23 15.4 79.09 C22.17 78.97 28.94 78.9 35.71 78.87 C39.29 78.86 42.87 78.82 46.44 78.73 C72.25 78.12 72.25 78.12 80.53 85.8 C82.45 87.8 84.21 89.87 86 92 C87.76 93.52 89.55 95.01 91.38 96.44 C92.69 97.5 92.69 97.5 94.03 98.59 C95.01 99.39 95.99 100.18 97 101 C99.65 103.14 102.29 105.29 104.94 107.44 C105.96 108.27 105.96 108.27 107 109.11 C113.05 114.02 119.03 119 125 124 C127 125.67 129 127.33 131 129 C130.04 131.51 129.56 132.74 127.06 133.89 C126.26 134.08 125.47 134.27 124.64 134.46 C123.73 134.68 122.81 134.9 121.87 135.13 C120.86 135.35 119.85 135.58 118.81 135.81 C117.75 136.06 116.7 136.31 115.6 136.57 C112.07 137.4 108.54 138.2 105 139 C103.77 139.28 102.55 139.55 101.28 139.84 C96.11 141.01 90.93 142.18 85.75 143.33 C77.36 145.2 69.02 147.23 60.69 149.38 C44.39 153.54 27.93 156.94 11.48 160.41 C3.85 162.03 -3.77 163.68 -11.38 165.38 C-12.4 165.6 -13.42 165.83 -14.48 166.06 C-19.36 167.15 -24.21 168.3 -29.05 169.53 C-34.63 170.93 -40.23 172.1 -45.88 173.19 C-56.98 175.37 -68.05 177.67 -79.12 180 C-79.95 180.17 -80.78 180.35 -81.63 180.53 C-91.13 182.53 -100.63 184.56 -110.12 186.62 C-111.42 186.91 -111.42 186.91 -112.75 187.2 C-116.69 188.06 -120.64 188.92 -124.59 189.79 C-128.43 190.64 -132.28 191.47 -136.12 192.31 C-137.33 192.58 -138.54 192.85 -139.78 193.12 C-140.91 193.37 -142.03 193.61 -143.2 193.86 C-144.2 194.08 -145.2 194.3 -146.23 194.53 C-148.88 194.98 -151.31 195.09 -154 195 C-154 194.34 -154 193.68 -154 193 C-153.11 192.6 -152.21 192.21 -151.29 191.8 C-141.82 186.62 -134.94 175.28 -128.39 166.8 C-126.11 163.85 -123.8 160.93 -121.5 158 C-120.58 156.83 -119.67 155.67 -118.75 154.5 C-116.91 152.16 -115.06 149.81 -113.21 147.46 C-112.29 146.29 -111.36 145.11 -110.44 143.94 C-109.98 143.36 -109.53 142.79 -109.06 142.19 C-105.5 137.66 -102 133.08 -98.51 128.49 C-95.59 124.7 -92.53 121.09 -89.28 117.59 C-87.78 115.91 -87.78 115.91 -87 113 C-85.33 111.33 -83.67 109.67 -82 108 C-81.51 106.51 -81.51 106.51 -81 105 C-79.84 103.83 -78.67 102.67 -77.48 101.53 C-74.54 98.5 -72.09 95.06 -69.56 91.69 C-69.02 90.97 -68.47 90.25 -67.9 89.5 C-66.81 88.06 -65.72 86.61 -64.63 85.16 C-63.52 83.69 -62.41 82.23 -61.29 80.78 C-60.75 80.08 -60.21 79.37 -59.65 78.64 C-58.92 77.7 -58.92 77.7 -58.18 76.74 C-56.81 74.9 -56.81 74.9 -56 72 C-55.34 71.67 -54.68 71.34 -54 71 C-53.51 69.51 -53.51 69.51 -53 68 C-52.02 66.98 -51.02 65.98 -50 65 C-49.51 64.01 -49.51 64.01 -49 63 C-48.34 63 -47.68 63 -47 63 C-46.67 61.68 -46.34 60.36 -46 59 C-45.34 59 -44.68 59 -44 59 C-43.62 58.17 -43.62 58.17 -43.23 57.32 C-41.8 54.62 -40.1 52.32 -38.25 49.88 C-37.46 48.83 -36.66 47.78 -35.84 46.7 C-31.92 41.58 -27.95 36.49 -23.96 31.41 C-21.28 27.98 -18.67 24.55 -16.2 20.96 C-15.48 19.98 -14.75 19.01 -14 18 C-13.34 18 -12.68 18 -12 18 C-11.66 17.23 -11.66 17.23 -11.31 16.45 C-9.48 13.02 -7.25 9.92 -5 6.75 C-4.32 5.78 -4.32 5.78 -3.63 4.78 C-2.47 3.15 -1.24 1.57 0 0 Z " fill="#FDFDFD" transform="translate(1145,338)"/>
<path d="M0 0 C2.77 0 5.54 0 8.31 -0 C14.26 -0 20.2 0.01 26.14 0.04 C34.74 0.08 43.33 0.09 51.93 0.1 C65.87 0.11 79.82 0.14 93.77 0.19 C107.31 0.24 120.85 0.27 134.39 0.29 C135.64 0.29 135.64 0.29 136.92 0.3 C141.11 0.3 145.31 0.31 149.5 0.32 C184.24 0.37 218.99 0.46 253.73 0.57 C254.06 1.23 254.39 1.89 254.73 2.57 C239.88 2.9 225.03 3.23 209.73 3.57 C209.73 4.23 209.73 4.89 209.73 5.57 C209.17 5.74 208.62 5.92 208.05 6.1 C195.8 10 184.06 14.55 172.48 20.13 C170.82 20.92 170.82 20.92 169.13 21.73 C163.91 24.3 158.95 27 154.09 30.2 C148.98 33.52 143.87 35.84 138.17 37.94 C137.09 38.35 136.02 38.75 134.92 39.17 C117.48 45.64 99.8 51.45 82.18 57.38 C75.5 59.63 68.84 61.89 62.17 64.18 C61.35 64.46 60.52 64.74 59.67 65.04 C58.02 65.6 56.38 66.17 54.73 66.73 C35.6 73.29 16.42 79.7 -2.78 86.06 C-3.84 86.41 -4.91 86.76 -6 87.13 C-7.99 87.79 -9.98 88.45 -11.98 89.11 C-15.44 90.26 -18.86 91.4 -22.25 92.76 C-27.99 95.05 -34.73 94.06 -40.4 92.01 C-52.25 86.66 -60.38 77.46 -65.27 65.57 C-67.13 60.17 -67.63 55.4 -67.58 49.76 C-67.58 48.96 -67.57 48.16 -67.57 47.34 C-67.29 33.86 -61.58 23.4 -52.45 13.6 C-48.74 10.14 -44.77 7.87 -40.27 5.57 C-39.48 5.12 -38.68 4.68 -37.87 4.23 C-25.98 -1.42 -12.85 -0.09 0 0 Z " fill="#FCFBFD" transform="translate(962.270751953125,220.432373046875)"/>
<path d="M0 0 C0.33 0.99 0.66 1.98 1 3 C0.34 3 -0.32 3 -1 3 C-1.08 3.54 -1.16 4.07 -1.25 4.62 C-2.26 7.82 -4.15 10.22 -6 13 C-6.15 13.65 -6.31 14.31 -6.47 14.98 C-7.08 17.31 -7.97 18.49 -9.52 20.33 C-10.04 20.96 -10.56 21.58 -11.1 22.23 C-11.95 23.23 -11.95 23.23 -12.81 24.25 C-18.19 30.69 -23.28 37.28 -28.13 44.12 C-29.35 45.8 -30.67 47.41 -32 49 C-32.99 49 -33.98 49 -35 49 C-36.82 51.24 -38.45 53.43 -40.06 55.81 C-40.51 56.46 -40.96 57.1 -41.42 57.76 C-43.31 60.49 -45.16 63.24 -47 66 C-47.66 66 -48.32 66 -49 66 C-49.23 66.53 -49.47 67.06 -49.71 67.61 C-51.39 70.72 -53.51 73.42 -55.69 76.19 C-56.14 76.77 -56.59 77.34 -57.05 77.94 C-58.36 79.63 -59.68 81.31 -61 83 C-70.3 94.78 -70.3 94.78 -79 107 C-79.66 107 -80.32 107 -81 107 C-81.33 108.32 -81.66 109.64 -82 111 C-82.66 111 -83.32 111 -84 111 C-84.66 112.65 -85.32 114.3 -86 116 C-86.66 116 -87.32 116 -88 116 C-88.33 117.32 -88.66 118.64 -89 120 C-89.66 120 -90.32 120 -91 120 C-91.15 120.84 -91.15 120.84 -91.29 121.7 C-93.88 130.12 -102.45 138.16 -107.96 144.96 C-108.46 145.57 -108.95 146.18 -109.46 146.81 C-109.9 147.36 -110.34 147.9 -110.8 148.46 C-111.94 149.92 -112.97 151.46 -114 153 C-114.66 153 -115.32 153 -116 153 C-116.1 153.58 -116.21 154.15 -116.31 154.75 C-117.11 157.36 -118.19 158.97 -120 161 C-120.66 161 -121.32 161 -122 161 C-122.09 161.58 -122.19 162.15 -122.28 162.75 C-123.17 165.54 -124.48 166.88 -126.5 169 C-130.52 173.38 -134.06 177.99 -137.59 182.77 C-141.48 188.01 -145.56 193.11 -149.6 198.23 C-150.97 199.96 -152.33 201.7 -153.69 203.44 C-160.68 212.38 -167.78 221.23 -175 230 C-175.73 230.89 -176.45 231.77 -177.2 232.68 C-178.09 233.74 -178.09 233.74 -179 234.81 C-179.47 235.38 -179.95 235.94 -180.44 236.52 C-184.24 240.12 -187.6 241.46 -192.81 241.56 C-198.14 241.41 -201.28 240.42 -205.27 236.89 C-208.35 233.53 -210.7 229.93 -213 226 C-213.53 225.2 -214.05 224.4 -214.6 223.57 C-223 209.97 -224.15 190.57 -221.38 175.03 C-217.35 157.98 -208.45 144.93 -197 132 C-196.35 131.23 -195.69 130.47 -195.02 129.68 C-185.03 118.77 -171.2 110.87 -158.47 103.59 C-153.45 100.71 -148.54 97.68 -143.62 94.62 C-142.74 94.08 -141.85 93.53 -140.94 92.96 C-132.71 87.83 -124.51 82.66 -116.31 77.46 C-114.05 76.03 -111.78 74.6 -109.5 73.18 C-100.19 67.34 -90.95 61.39 -81.75 55.38 C-81.19 55.01 -80.63 54.64 -80.05 54.26 C-72.89 49.58 -65.76 44.84 -58.66 40.05 C-54.94 37.56 -51.13 35.38 -47.18 33.28 C-44.89 31.94 -42.91 30.44 -40.84 28.78 C-36.14 25.07 -31.29 21.61 -26.38 18.19 C-25.51 17.59 -24.65 16.99 -23.77 16.37 C-17.7 12.14 -11.58 8 -5.41 3.93 C-2.56 2.15 -2.56 2.15 0 0 Z " fill="#C7A7F8" transform="translate(1180,290)"/>
<path d="M0 0 C0.86 0.19 1.71 0.39 2.59 0.58 C11.03 2.57 19.11 5.37 27.25 8.31 C28.55 8.78 29.86 9.24 31.16 9.71 C46.62 15.24 61.92 21.11 77.12 27.31 C78.75 27.97 80.38 28.63 82 29.3 C86.67 31.19 91.33 33.1 96 35 C96.98 35.4 96.98 35.4 97.98 35.81 C104.66 38.53 111.33 41.26 118 44 C114.89 47.11 111.03 46.53 106.84 46.75 C105.91 46.8 104.98 46.86 104.03 46.91 C102.03 47.03 100.04 47.15 98.05 47.26 C92.86 47.56 87.67 47.88 82.48 48.21 C81.47 48.28 80.45 48.35 79.41 48.41 C71.16 48.96 63.01 49.8 54.81 50.88 C46.97 51.91 39.13 52.67 31.25 53.38 C2.39 56 -26.41 59.27 -55.12 63.19 C-56.52 63.38 -56.52 63.38 -57.94 63.57 C-66.6 64.76 -75.25 65.95 -83.84 67.59 C-86.74 68.14 -89.65 68.57 -92.56 69 C-96.51 69.59 -100.41 70.27 -104.31 71.12 C-108.63 72.03 -112.59 72.16 -117 72 C-117 71.67 -117 71.34 -117 71 C-116.12 71.09 -115.23 71.18 -114.32 71.27 C-110.18 71.25 -106.62 71.09 -103 69 C-98.64 64.03 -96.13 57.59 -93.33 51.67 C-91.34 47.67 -88.97 43.97 -86.5 40.25 C-86.05 39.57 -85.6 38.89 -85.14 38.18 C-83.77 36.12 -82.39 34.06 -81 32 C-80.51 31.27 -80.02 30.53 -79.51 29.78 C-78.04 27.58 -76.55 25.38 -75.06 23.19 C-74.61 22.52 -74.17 21.86 -73.7 21.17 C-71.37 17.77 -68.96 14.9 -66 12 C-64.83 10.19 -64.83 10.19 -63.94 8.38 C-62 5 -62 5 -59 3 C-59 3.66 -59 4.32 -59 5 C-58.13 4.44 -57.27 3.89 -56.38 3.31 C-38.11 -6.74 -19.72 -4.67 0 0 Z M-57 -1 C-57 -0.01 -57 0.98 -57 2 C-57.99 2.5 -57.99 2.5 -59 3 C-58.34 1.68 -57.68 0.36 -57 -1 Z " fill="#863BF2" transform="translate(727,447)"/>
<path d="M0 0 C0.66 0 1.32 0 2 0 C0.43 5.15 -2.79 8.7 -6.19 12.75 C-7.38 14.19 -8.57 15.64 -9.76 17.08 C-10.61 18.11 -10.61 18.11 -11.48 19.16 C-15.39 23.9 -19.09 28.81 -22.82 33.69 C-23.34 34.37 -23.86 35.06 -24.4 35.77 C-25.52 37.22 -26.63 38.68 -27.74 40.14 C-31.88 45.55 -36.06 50.94 -40.25 56.31 C-49.42 67.94 -49.42 67.94 -58 80 C-15.1 80 27.8 80 72 80 C72 80.33 72 80.66 72 81 C71.33 81 70.66 81 69.97 81 C53.65 81.04 37.33 81.1 21.02 81.18 C13.13 81.22 5.24 81.26 -2.65 81.27 C-9.53 81.28 -16.41 81.31 -23.29 81.35 C-26.93 81.38 -30.57 81.39 -34.21 81.39 C-38.28 81.39 -42.34 81.42 -46.41 81.45 C-48.22 81.45 -48.22 81.45 -50.06 81.44 C-56.51 81.46 -56.51 81.46 -62.29 84.03 C-63.13 85.01 -63.13 85.01 -64 86 C-62.35 82.42 -60.18 79.28 -58 76 C-57.63 75.24 -57.26 74.47 -56.88 73.69 C-56 72 -56 72 -54 71 C-53.67 70.01 -53.34 69.02 -53 68 C-52.02 66.98 -51.02 65.98 -50 65 C-49.67 64.34 -49.34 63.68 -49 63 C-48.34 63 -47.68 63 -47 63 C-46.67 61.68 -46.34 60.36 -46 59 C-45.34 59 -44.68 59 -44 59 C-43.75 58.45 -43.49 57.89 -43.23 57.32 C-41.8 54.62 -40.1 52.32 -38.25 49.88 C-37.46 48.83 -36.66 47.78 -35.84 46.7 C-31.92 41.58 -27.95 36.49 -23.96 31.41 C-21.28 27.98 -18.67 24.55 -16.2 20.96 C-15.48 19.98 -14.75 19.01 -14 18 C-13.34 18 -12.68 18 -12 18 C-11.77 17.49 -11.55 16.98 -11.31 16.45 C-9.48 13.02 -7.25 9.92 -5 6.75 C-4.32 5.78 -4.32 5.78 -3.63 4.78 C-2.47 3.15 -1.24 1.57 0 0 Z " fill="#E3D4F8" transform="translate(1145,338)"/>
<path d="M0 0 C6.01 0.71 12.02 0.74 18.06 0.83 C19.91 0.86 19.91 0.86 21.79 0.89 C25.69 0.96 29.6 1.02 33.5 1.08 C36.15 1.12 38.81 1.16 41.47 1.21 C47.96 1.31 54.45 1.42 60.94 1.51 C60.94 1.84 60.94 2.17 60.94 2.51 C2.2 2.51 -56.54 2.51 -117.06 2.51 C-116.73 1.85 -116.4 1.19 -116.06 0.51 C-114.84 0.52 -113.61 0.52 -112.34 0.53 C-85.31 0.63 -58.31 0.44 -31.29 -0.2 C-6.29 -0.79 -6.29 -0.79 0 0 Z " fill="#610DDF" transform="translate(1155.06494140625,218.486083984375)"/>
<path d="M0 0 C0.64 1.8 0.64 1.8 1 4 C-0.76 6.41 -2.49 8.51 -4.5 10.69 C-5.61 11.94 -6.73 13.19 -7.84 14.45 C-8.38 15.05 -8.93 15.66 -9.49 16.29 C-13.09 20.37 -16.63 24.62 -19.35 29.35 C-21.38 32.62 -23.8 35.47 -26.31 38.38 C-26.8 38.95 -27.29 39.52 -27.79 40.11 C-29.84 42.51 -31.9 44.89 -34.02 47.23 C-37.03 50.44 -37.03 50.44 -38.44 54.51 C-39.12 57.53 -39.85 58.04 -42.31 59.81 C-46.61 63.33 -49.73 67.36 -53 71.81 C-53.51 72.51 -54.03 73.21 -54.56 73.94 C-55.57 75.32 -56.58 76.7 -57.59 78.09 C-59.5 80.68 -61.45 83.22 -63.44 85.75 C-64.01 86.49 -64.59 87.22 -65.18 87.98 C-67.26 90.29 -69.53 92.12 -72 94 C-70.39 90.38 -68.18 87.49 -65.75 84.38 C-65.1 83.54 -65.1 83.54 -64.44 82.69 C-63.49 81.46 -62.53 80.23 -61.57 79.01 C-59.31 76.11 -57.05 73.21 -54.8 70.32 C-53.59 68.76 -52.39 67.21 -51.18 65.66 C-47.73 61.23 -44.29 56.78 -40.88 52.31 C-36.81 47.01 -32.65 41.79 -28.46 36.59 C-24.41 31.54 -20.46 26.42 -16.52 21.28 C-13.28 17.05 -9.97 12.86 -6.67 8.67 C-4.41 5.8 -2.17 2.93 0 0 Z " fill="#5916D0" transform="translate(1200,271)"/>
<path d="M0 0 C-0.33 0.66 -0.66 1.32 -1 2 C-3.4 2.51 -5.76 2.9 -8.19 3.25 C-16.51 4.56 -24.51 6.66 -32.6 9.02 C-33.49 9.27 -34.38 9.53 -35.3 9.79 C-36.48 10.14 -36.48 10.14 -37.68 10.5 C-40.18 11.04 -42.45 11.09 -45 11 C-45 10.34 -45 9.68 -45 9 C-46.32 8.67 -47.64 8.34 -49 8 C-49 7.34 -49 6.68 -49 6 C-43.13 4.44 -37.32 3.32 -31.31 2.44 C-30.44 2.31 -29.56 2.18 -28.66 2.05 C-19.12 0.68 -9.64 -0.19 0 0 Z " fill="#DFC8FB" transform="translate(624,325)"/>
<path d="M0 0 C7.12 1.4 13.66 3.58 20.44 6.12 C41.85 13.99 63.79 20.84 86.13 25.54 C88 26 88 26 90 27 C90 27.66 90 28.32 90 29 C83.12 28.12 83.12 28.12 82 27 C79.67 26.65 77.33 26.32 75 26 C73.51 25.5 73.51 25.5 72 25 C70.44 24.63 68.88 24.28 67.31 23.94 C66.5 23.76 65.7 23.58 64.86 23.4 C64.25 23.27 63.63 23.14 63 23 C63 22.34 63 21.68 63 21 C61.99 21.06 60.98 21.12 59.94 21.19 C56.32 21.02 54.28 20.39 51.08 18.86 C47.5 17.38 43.71 16.65 39.95 15.76 C36.17 14.78 32.64 13.42 29 12 C28.34 12 27.68 12 27 12 C27 11.34 27 10.68 27 10 C24.03 9.67 21.06 9.34 18 9 C18 8.34 18 7.68 18 7 C16.97 6.9 15.94 6.79 14.88 6.69 C11.01 6 8.45 4.8 5 3 C2.26 2.3 2.26 2.3 0 2 C0 1.34 0 0.68 0 0 Z " fill="#570ADE" transform="translate(420,582)"/>
<path d="M0 0 C0.49 1.49 0.49 1.49 1 3 C-0.59 5.31 -0.59 5.31 -2.94 8 C-6.16 11.78 -9.23 15.59 -12.12 19.62 C-15.02 23.66 -18 27.62 -21.06 31.53 C-23.51 34.65 -25.95 37.79 -28.38 40.94 C-28.82 41.51 -29.26 42.07 -29.71 42.66 C-32.07 45.69 -32.07 45.69 -34 49 C-33.36 49.12 -32.72 49.24 -32.07 49.37 C-31.24 49.53 -30.41 49.7 -29.56 49.88 C-28.74 50.04 -27.92 50.2 -27.07 50.37 C-26.38 50.58 -25.7 50.78 -25 51 C-24.67 51.66 -24.34 52.32 -24 53 C-29.28 53 -34.56 53 -40 53 C-38.4 49.81 -36.94 47.44 -34.8 44.65 C-34.15 43.81 -33.51 42.96 -32.85 42.09 C-32.15 41.2 -31.46 40.3 -30.75 39.38 C-30.04 38.45 -29.33 37.52 -28.59 36.56 C-22.31 28.37 -15.98 20.22 -9.63 12.09 C-8.44 10.57 -7.26 9.05 -6.08 7.52 C-5.45 6.7 -4.81 5.89 -4.16 5.05 C-3.58 4.3 -3 3.55 -2.4 2.78 C-1 1 -1 1 0 0 Z " fill="#5716CC" transform="translate(1127,365)"/>
<path d="M0 0 C1.49 0.99 1.49 0.99 3 2 C3 2.66 3 3.32 3 4 C3.66 4 4.32 4 5 4 C5.45 5.03 5.91 6.06 6.38 7.12 C10.13 14.69 15.55 21.59 20.74 28.22 C22.44 30.62 23.08 33.23 24 36 C24.66 36.33 25.32 36.66 26 37 C29.91 40.96 35 46.14 35 52 C35.99 52.5 35.99 52.5 37 53 C38.29 54.56 38.29 54.56 39.62 56.44 C40.07 57.05 40.52 57.67 40.98 58.31 C42 60 42 60 42 62 C42.99 62.5 42.99 62.5 44 63 C45.97 66.06 46.2 68.4 46 72 C45.73 71.43 45.46 70.85 45.18 70.26 C43.98 67.96 42.62 65.93 41.11 63.81 C40.52 62.96 39.92 62.12 39.3 61.25 C38.65 60.32 37.99 59.39 37.31 58.44 C29.94 47.94 22.84 37.28 15.81 26.56 C15.31 25.8 14.81 25.04 14.3 24.25 C12.85 22.05 11.4 19.84 9.96 17.63 C9.53 16.98 9.1 16.33 8.66 15.66 C7.44 13.77 6.22 11.89 5 10 C4.3 8.92 4.3 8.92 3.58 7.82 C3.12 7.1 2.66 6.39 2.19 5.65 C1.56 4.67 1.56 4.67 0.92 3.68 C0 2 0 2 0 0 Z " fill="#5F16D3" transform="translate(913,479)"/>
<path d="M0 0 C2 1 2 1 2.82 3.37 C3.11 4.38 3.39 5.39 3.69 6.44 C7.71 18.98 15.58 26.81 26.89 33.02 C34.24 36.43 42.18 35.85 49.67 33.16 C51.5 32.46 53.32 31.73 55.13 31 C56.08 30.67 57.02 30.34 58 30 C58.66 30.33 59.32 30.66 60 31 C59.36 31.1 58.72 31.21 58.06 31.31 C57.38 31.54 56.7 31.77 56 32 C55.67 32.99 55.34 33.98 55 35 C47.57 38.8 38.85 39.85 30.77 37.97 C19.23 33.92 9.19 25.59 3.56 14.69 C3.03 13.47 2.5 12.24 2 11 C1.59 10.13 1.17 9.27 0.75 8.38 C-0.16 5.5 -0.14 3 0 0 Z " fill="#5A11D9" transform="translate(894,278)"/>
<path d="M0 0 C0.66 0 1.32 0 2 0 C2.02 0.73 2.03 1.46 2.05 2.21 C3 13.68 8.73 21.66 15 31 C15.9 32.37 16.8 33.73 17.7 35.1 C19.36 37.6 21.02 40.09 22.7 42.57 C24.87 45.8 27.01 49.04 29.12 52.31 C29.96 53.61 29.96 53.61 30.82 54.93 C32 57 32 57 32 59 C28.84 57.63 28.01 57.01 26 54 C26 53.01 26 52.02 26 51 C25.34 51 24.68 51 24 51 C24 50.34 24 49.68 24 49 C23.34 49 22.68 49 22 49 C21.67 47.02 21.34 45.04 21 43 C20.34 43 19.68 43 19 43 C19 42.01 19 41.02 19 40 C18.34 40 17.68 40 17 40 C15.44 37.86 14.02 35.74 12.62 33.5 C12.22 32.86 11.82 32.22 11.4 31.57 C4 19.72 4 19.72 4 16 C3.34 16 2.68 16 2 16 C1.67 13.69 1.34 11.38 1 9 C0.34 9 -0.32 9 -1 9 C-0.67 6.03 -0.34 3.06 0 0 Z " fill="#5F18D6" transform="translate(924,447)"/>
<path d="M0 0 C3.78 0.65 6.42 2.38 9.62 4.44 C24.41 13.73 39.81 21.8 55.86 28.66 C57.59 29.4 59.32 30.16 61 31 C61 31.66 61 32.32 61 33 C56.92 32.39 53.78 31.03 50.12 29.12 C44.19 26.08 38.21 23.45 32 21 C32 20.34 32 19.68 32 19 C31.3 18.81 30.6 18.61 29.88 18.41 C28.52 18.02 28.52 18.02 27.12 17.62 C25.77 17.24 25.77 17.24 24.38 16.85 C22 16 22 16 20 14 C18.33 12.89 16.64 11.81 14.94 10.75 C11.21 8.4 7.49 6.04 3.81 3.62 C3.08 3.14 2.34 2.66 1.58 2.16 C1.06 1.78 0.54 1.4 0 1 C0 0.67 0 0.34 0 0 Z " fill="#570EDA" transform="translate(357,549)"/>
<path d="M0 0 C0.66 0.33 1.32 0.66 2 1 C1.43 1.47 0.86 1.95 0.28 2.43 C-4.69 6.69 -8.79 10.99 -12.59 16.31 C-13.06 16.87 -13.52 17.43 -14 18 C-14.66 18 -15.32 18 -16 18 C-16.46 18.93 -16.46 18.93 -16.94 19.88 C-17.62 21.25 -18.31 22.62 -19 24 C-19.66 24 -20.32 24 -21 24 C-21.27 24.71 -21.54 25.42 -21.82 26.15 C-23.03 29.07 -24.42 31.82 -25.88 34.62 C-28.73 40.27 -30.99 46 -33 52 C-33.33 52 -33.66 52 -34 52 C-34 34.02 -19.28 18.3 -7.44 6.19 C-5.09 3.91 -2.64 1.93 0 0 Z " fill="#AB7AF8" transform="translate(995,411)"/>
<path d="M0 0 C2.31 0 4.62 0 7 0 C7.33 0.66 7.66 1.32 8 2 C10.02 2.65 10.02 2.65 12.38 3.06 C15.02 3.58 17.43 4.14 20 5 C20 5.66 20 6.32 20 7 C20.68 6.94 21.36 6.88 22.06 6.81 C25.13 7.01 27.19 7.91 29.95 9.2 C33.82 10.71 37.92 11.3 42 12 C42 12.66 42 13.32 42 14 C43.98 14 45.96 14 48 14 C48.5 14.99 48.5 14.99 49 16 C38.59 16.15 29.98 12.69 20.47 8.95 C15.76 7.14 10.96 5.55 6.17 3.95 C1.11 2.22 1.11 2.22 0 0 Z " fill="#6920D9" transform="translate(482,558)"/>
<path d="M0 0 C0 0.33 0 0.66 0 1 C-0.59 1.01 -1.18 1.03 -1.78 1.04 C-4.5 1.12 -7.22 1.22 -9.94 1.31 C-10.86 1.34 -11.79 1.36 -12.74 1.38 C-18.99 1.62 -24.19 2.72 -30 5 C-30.91 5.32 -31.82 5.63 -32.75 5.96 C-38.75 8.24 -43.81 11.24 -49 15 C-48.21 10.75 -46.15 8.91 -43 6 C-43 6.66 -43 7.32 -43 8 C-42.13 7.44 -41.27 6.89 -40.38 6.31 C-26.54 -1.3 -15.41 -1.47 0 0 Z M-41 2 C-41 2.99 -41 3.98 -41 5 C-41.99 5.5 -41.99 5.5 -43 6 C-42.34 4.68 -41.68 3.36 -41 2 Z " fill="#B88DF6" transform="translate(711,444)"/>
<path d="M0 0 C-0.33 0.66 -0.66 1.32 -1 2 C-4.06 3 -7.27 3.44 -10.44 4 C-17.89 5.29 -17.89 5.29 -25.12 7.44 C-29.48 8.93 -33.8 9.77 -38.34 10.53 C-41.95 11.17 -45.46 12.06 -49 13 C-49 12.01 -49 11.02 -49 10 C-48.27 9.84 -47.53 9.68 -46.78 9.51 C-43.35 8.76 -39.92 8.01 -36.5 7.25 C-35.27 6.98 -34.04 6.71 -32.77 6.43 C-24.84 4.67 -16.97 2.78 -9.14 0.66 C-5.99 -0 -3.2 -0.13 0 0 Z " fill="#5D17D1" transform="translate(1234,481)"/>
<path d="M0 0 C3.96 0 7.92 0 12 0 C12 0.66 12 1.32 12 2 C12.99 1.34 13.98 0.68 15 0 C17.33 -0.08 19.67 -0.09 22 0 C22 0.66 22 1.32 22 2 C22.87 1.65 23.73 1.3 24.62 0.94 C28.36 -0.1 30.26 0.16 34 1 C36.33 1.34 38.67 1.67 41 2 C41 2.33 41 2.66 41 3 C27.8 3 14.6 3 1 3 C0.67 2.01 0.34 1.02 0 0 Z " fill="#5B08D4" transform="translate(1111,415)"/>
<path d="M0 0 C0.64 1.8 0.64 1.8 1 4 C-0.76 6.41 -2.49 8.51 -4.5 10.69 C-5.61 11.94 -6.73 13.19 -7.84 14.45 C-8.38 15.05 -8.93 15.66 -9.49 16.29 C-13.82 21.2 -17.73 26.32 -21 32 C-21.66 32.66 -22.32 33.32 -23 34 C-23.99 33.67 -24.98 33.34 -26 33 C-25.18 32 -24.36 30.99 -23.51 29.96 C-15.47 20.12 -7.61 10.18 0 0 Z " fill="#611BD6" transform="translate(1200,271)"/>
<path d="M0 0 C3.61 0.58 6.32 1.52 9.48 3.34 C10.75 4.06 10.75 4.06 12.05 4.8 C12.94 5.32 13.83 5.84 14.75 6.38 C16.13 7.17 16.13 7.17 17.54 7.98 C26.21 13.03 34.64 18.44 43 24 C42.34 24.66 41.68 25.32 41 26 C40.39 25.56 39.79 25.13 39.16 24.68 C33.98 21 28.74 17.57 23.26 14.35 C21.32 13.19 19.47 11.98 17.62 10.69 C15.3 9.19 13.7 8.42 11 8 C11 7.34 11 6.68 11 6 C10.48 5.92 9.97 5.84 9.44 5.75 C5.96 4.68 3.13 2.86 0 1 C0 0.67 0 0.34 0 0 Z " fill="#5412CB" transform="translate(880,509)"/>
<path d="M0 0 C0.33 0 0.66 0 1 0 C0.99 0.78 0.98 1.56 0.97 2.37 C0.93 5.93 0.9 9.5 0.88 13.06 C0.86 14.29 0.84 15.52 0.82 16.79 C0.69 24.09 0.69 24.09 2.13 31.18 C2.56 32.58 2.56 32.58 3 34 C2.34 34.99 1.68 35.98 1 37 C-1.34 29.25 -2.3 22.06 -2.31 14 C-2.32 13.19 -2.32 12.37 -2.33 11.54 C-2.28 7.25 -1.97 3.9 0 0 Z " fill="#B080F6" transform="translate(960,464)"/>
<path d="M0 0 C3.55 0.32 5.5 1.29 8.19 3.5 C12.44 6.76 16.78 6.88 22 7 C22 7.66 22 8.32 22 9 C22.66 9.33 23.32 9.66 24 10 C16.59 10.57 10.53 9.72 4 6 C0 1.9 0 1.9 0 0 Z " fill="#F2E9FC" transform="translate(969,524)"/>
<path d="M0 0 C0.66 0.33 1.32 0.66 2 1 C-0.97 5.45 -0.97 5.45 -4 10 C-1.8 10.43 -1.8 10.43 0.44 10.88 C2.93 11.37 2.93 11.37 5 12 C5.33 12.66 5.66 13.32 6 14 C0.72 14 -4.56 14 -10 14 C-8.21 10.41 -6.39 7.83 -3.88 4.75 C-3.15 3.86 -2.43 2.97 -1.68 2.05 C-0.85 1.03 -0.85 1.03 0 0 Z " fill="#5110C4" transform="translate(1097,404)"/>
<path d="M0 0 C2.92 1.46 4.79 3.62 7 6 C7.33 6.99 7.66 7.98 8 9 C8.99 8.67 9.98 8.34 11 8 C14 11.75 14 11.75 14 14 C15.32 14 16.64 14 18 14 C18 14.99 18 15.98 18 17 C18.99 17.33 19.98 17.66 21 18 C20.34 18.66 19.68 19.32 19 20 C18.07 19.19 17.14 18.38 16.18 17.55 C14.94 16.47 13.69 15.39 12.44 14.31 C11.83 13.78 11.22 13.25 10.59 12.71 C7.5 10.04 4.4 7.54 1.04 5.23 C0.03 4.49 -0.97 3.76 -2 3 C-2 2.34 -2 1.68 -2 1 C-1.34 0.67 -0.68 0.34 0 0 Z " fill="#6A15E2" transform="translate(1222,419)"/>
<path d="M0 0 C2 1 2 1 2.82 3.37 C3.11 4.38 3.39 5.39 3.69 6.44 C5.74 12.89 8.84 17.72 13 23 C13.8 24.03 14.61 25.06 15.44 26.12 C15.95 26.74 16.47 27.36 17 28 C14 28 14 28 12.1 26.31 C7.84 21.47 4.49 16.95 2 11 C1.59 10.13 1.17 9.27 0.75 8.38 C-0.16 5.5 -0.14 3 0 0 Z " fill="#5E0EE0" transform="translate(894,278)"/>
<path d="M0 0 C1.49 0.99 1.49 0.99 3 2 C3 2.66 3 3.32 3 4 C3.66 4 4.32 4 5 4 C5.45 5.03 5.91 6.06 6.38 7.12 C8.85 12.16 12.17 16.54 15.56 20.99 C18.01 24.29 19.6 26.87 20 31 C16.01 27.44 13.39 23.23 10.56 18.75 C10.1 18.02 9.63 17.3 9.15 16.55 C8.23 15.1 7.3 13.64 6.38 12.18 C5.44 10.7 4.49 9.22 3.54 7.74 C3.08 7.03 2.62 6.31 2.15 5.58 C1.74 4.94 1.32 4.3 0.9 3.64 C0 2 0 2 0 0 Z " fill="#5C19C9" transform="translate(913,479)"/>
<path d="M0 0 C3.64 1.46 5.13 3.23 7.23 6.5 C8.09 7.83 8.09 7.83 8.97 9.19 C9.56 10.12 10.15 11.04 10.75 12 C11.35 12.93 11.95 13.86 12.57 14.81 C17 21.72 17 21.72 17 24 C13.84 22.63 13.01 22.01 11 19 C11 18.01 11 17.02 11 16 C10.34 16 9.68 16 9 16 C9 15.34 9 14.68 9 14 C8.34 14 7.68 14 7 14 C6.67 12.02 6.34 10.04 6 8 C5.34 8 4.68 8 4 8 C4 7.01 4 6.02 4 5 C3.34 5 2.68 5 2 5 C1.34 3.35 0.68 1.7 0 0 Z " fill="#5716CB" transform="translate(939,482)"/>
<path d="M0 0 C0.99 0.5 0.99 0.5 2 1 C2 1.66 2 2.32 2 3 C2.66 3 3.32 3 4 3 C4 3.66 4 4.32 4 5 C4.66 5 5.32 5 6 5 C6.9 6.64 6.9 6.64 7.81 8.31 C9.02 10.44 10.01 12.01 11.75 13.75 C13 15 13 15 13 18 C13.66 18 14.32 18 15 18 C15.43 19.18 15.43 19.18 15.88 20.38 C16.85 23.1 16.85 23.1 19 25 C18.34 25.66 17.68 26.32 17 27 C14.92 23.96 12.83 20.92 10.75 17.88 C10.16 17.02 9.58 16.16 8.97 15.28 C7.83 13.61 6.69 11.94 5.55 10.27 C4.6 8.88 3.65 7.49 2.69 6.11 C0 2.22 0 2.22 0 0 Z " fill="#6813E0" transform="translate(808,328)"/>
<path d="M0 0 C0.33 0.99 0.66 1.98 1 3 C1.66 2.84 2.32 2.67 3 2.5 C6.73 1.88 10.22 1.94 14 2 C13.67 2.66 13.34 3.32 13 4 C10.41 4.56 10.41 4.56 7.06 5 C2.89 5.57 -1.2 6.22 -5.31 7.12 C-9.63 8.03 -13.59 8.16 -18 8 C-18 7.67 -18 7.34 -18 7 C-16.52 6.85 -16.52 6.85 -15.01 6.7 C-13.09 6.48 -13.09 6.48 -11.12 6.25 C-9.85 6.11 -8.57 5.97 -7.26 5.83 C-3.92 5.37 -3.92 5.37 -2.68 2.98 C-2.34 2 -2.34 2 -2 1 C-1.34 0.67 -0.68 0.34 0 0 Z " fill="#A174EA" transform="translate(628,511)"/>
<path d="M0 0 C2.31 0 4.62 0 7 0 C7.33 0.66 7.66 1.32 8 2 C10.02 2.65 10.02 2.65 12.38 3.06 C15.02 3.58 17.43 4.14 20 5 C20 5.66 20 6.32 20 7 C21.65 7 23.3 7 25 7 C25.33 7.99 25.66 8.98 26 10 C20.72 9.03 15.81 7.33 10.75 5.56 C9.83 5.25 8.9 4.94 7.95 4.62 C7.08 4.31 6.2 4.01 5.3 3.69 C4.5 3.41 3.7 3.14 2.87 2.85 C1 2 1 2 0 0 Z " fill="#6011DB" transform="translate(482,558)"/>
<path d="M0 0 C0.99 0 1.98 0 3 0 C1.3 4.29 -1.82 7.27 -4.94 10.56 C-5.48 11.14 -6.01 11.72 -6.57 12.31 C-9.01 14.92 -11.47 17.49 -14 20 C-14.99 19.67 -15.98 19.34 -17 19 C-16.49 18.5 -15.97 17.99 -15.44 17.47 C-13.12 15.19 -10.81 12.91 -8.5 10.62 C-7.69 9.83 -6.88 9.04 -6.04 8.22 C-5.28 7.46 -4.51 6.7 -3.72 5.91 C-3.01 5.21 -2.29 4.51 -1.56 3.79 C0.22 2.14 0.22 2.14 0 0 Z " fill="#DDC6FB" transform="translate(1108,254)"/>
<path d="M0 0 C3.97 0.65 6.83 2.61 10.19 4.75 C15.37 8.01 20.61 11.1 26 14 C24.02 14.99 24.02 14.99 22 16 C21.34 15.34 20.68 14.68 20 14 C18.33 12.89 16.64 11.81 14.94 10.75 C11.21 8.4 7.49 6.04 3.81 3.62 C3.08 3.14 2.34 2.66 1.58 2.16 C1.06 1.78 0.54 1.4 0 1 C0 0.67 0 0.34 0 0 Z " fill="#5D15DE" transform="translate(357,549)"/>
<path d="M0 0 C0 3.5 -0.58 4.12 -2.67 6.8 C-3.51 7.9 -3.51 7.9 -4.38 9.01 C-4.97 9.77 -5.57 10.53 -6.19 11.31 C-7.05 12.43 -7.05 12.43 -7.94 13.58 C-11.21 17.79 -14.56 21.92 -18 26 C-18 22.2 -16.8 20.89 -14.62 17.81 C-14 16.91 -13.37 16.01 -12.73 15.08 C-12.16 14.39 -11.59 13.71 -11 13 C-10.34 13 -9.68 13 -9 13 C-8.73 12.44 -8.46 11.89 -8.19 11.31 C-6.89 8.79 -5.58 6.36 -4 4 C-3.34 4 -2.68 4 -2 4 C-1.34 2.68 -0.68 1.36 0 0 Z " fill="#ECE2F8" transform="translate(1167,311)"/>
<path d="M0 0 C0.87 0 1.74 0.01 2.64 0.01 C4.76 0.03 6.88 0.04 9 0.06 C7.43 1.92 6.54 2.96 4.1 3.42 C3.4 3.41 2.7 3.4 1.98 3.39 C1.21 3.39 0.43 3.38 -0.37 3.38 C-1.18 3.35 -1.98 3.33 -2.81 3.31 C-3.61 3.31 -4.4 3.3 -5.22 3.3 C-9.58 3.24 -13.71 2.92 -18 2.06 C-18 1.73 -18 1.4 -18 1.06 C-11.95 0.17 -6.11 -0.06 0 0 Z " fill="#E6D2FC" transform="translate(789,610.9375)"/>
<path d="M0 0 C-0.64 0.1 -1.28 0.21 -1.94 0.31 C-2.62 0.54 -3.3 0.77 -4 1 C-4.33 1.99 -4.66 2.98 -5 4 C-11.12 7.52 -17.27 7.17 -24 6 C-24 5.67 -24 5.34 -24 5 C-23.33 4.9 -22.67 4.8 -21.98 4.7 C-15.71 3.69 -10.1 2.1 -4.21 -0.29 C-2 -1 -2 -1 0 0 Z " fill="#6928D5" transform="translate(954,309)"/>
<path d="M0 0 C1.98 0.99 1.98 0.99 4 2 C4 2.99 4 3.98 4 5 C4.99 5.33 5.98 5.66 7 6 C8.99 8.66 11 11.61 11 15 C11.99 15 12.98 15 14 15 C13.67 15.99 13.34 16.98 13 18 C7.86 13.35 3.77 7.8 0 2 C0 1.34 0 0.68 0 0 Z " fill="#620DDE" transform="translate(855,396)"/>
<path d="M0 0 C-1 2 -1 2 -2.71 2.63 C-8.55 3.92 -14.04 4.22 -20 4 C-20.33 3.34 -20.66 2.68 -21 2 C-20.24 1.94 -19.48 1.88 -18.7 1.82 C-17.71 1.73 -16.71 1.65 -15.69 1.56 C-14.7 1.48 -13.72 1.4 -12.7 1.32 C-1.27 -0.02 -1.27 -0.02 0 0 Z " fill="#6018DC" transform="translate(1003,532)"/>
<path d="M0 0 C4.4 0.46 7 3.41 10.06 6.31 C10.59 6.8 11.12 7.29 11.67 7.79 C14.41 10.35 16.87 12.9 19 16 C18.01 16 17.02 16 16 16 C16 15.34 16 14.68 16 14 C15.34 14 14.68 14 14 14 C13.2 13.03 12.39 12.06 11.56 11.06 C9.29 7.81 9.29 7.81 6 7 C1.33 2.67 1.33 2.67 0 0 Z " fill="#6317E1" transform="translate(1372,404)"/>
<path d="M0 0 C-6.19 2.77 -12.04 4.59 -18.75 5.61 C-21.03 5.89 -21.03 5.89 -23 7 C-23.66 6.34 -24.32 5.68 -25 5 C-21.59 3.96 -18.17 2.95 -14.75 1.94 C-13.78 1.64 -12.81 1.35 -11.82 1.04 C-10.88 0.77 -9.95 0.5 -8.98 0.21 C-8.13 -0.04 -7.27 -0.3 -6.38 -0.56 C-3.87 -1.02 -2.39 -0.82 0 0 Z " fill="#6C29DF" transform="translate(521,539)"/>
<path d="M0 0 C-3.57 2.38 -5.87 2.39 -10.04 2.66 C-11.01 2.83 -11.01 2.83 -12 3 C-12.33 3.66 -12.66 4.32 -13 5 C-16.63 5 -20.26 5 -24 5 C-16.42 1.21 -8.45 -0.49 0 0 Z " fill="#662ACD" transform="translate(545,533)"/>
<path d="M0 0 C6.12 3.84 12.17 7.72 18 12 C17.01 12.33 16.02 12.66 15 13 C13.28 12.04 13.28 12.04 11.5 10.62 C9.21 8.82 7.83 7.94 5 7 C5 6.34 5 5.68 5 5 C3.02 4.34 1.04 3.68 -1 3 C-0.67 2.01 -0.34 1.02 0 0 Z " fill="#661AE4" transform="translate(925,535)"/>
<path d="M0 0 C0.66 0.99 1.32 1.98 2 3 C1.36 3.25 0.72 3.5 0.06 3.75 C-2.16 4.77 -2.16 4.77 -2.44 6.75 C-3.16 9.62 -4.51 11.74 -6.06 14.25 C-6.61 15.14 -7.16 16.03 -7.72 16.95 C-8.14 17.63 -8.57 18.3 -9 19 C-10 16 -10 16 -8.67 13.22 C-8.04 12.18 -7.4 11.14 -6.75 10.06 C-6.13 9.02 -5.5 7.98 -4.86 6.91 C-3.33 4.51 -1.75 2.24 0 0 Z " fill="#5C0DDB" transform="translate(381,428)"/>
<path d="M0 0 C0 0.33 0 0.66 0 1 C-7.92 1 -15.84 1 -24 1 C-24 0.67 -24 0.34 -24 0 C-15.3 -2.17 -8.7 -2.17 0 0 Z " fill="#600CDD" transform="translate(1152,417)"/>
<path d="M0 0 C0.84 0.74 0.84 0.74 1.69 1.5 C-2.14 2.92 -5.23 3.74 -9.31 3.5 C-9.31 2.84 -9.31 2.18 -9.31 1.5 C-10.63 0.84 -11.95 0.18 -13.31 -0.5 C-3.57 -2.31 -3.57 -2.31 0 0 Z " fill="#EBDDFB" transform="translate(588.3125,332.5)"/>
<path d="M0 0 C4.54 3.69 8.34 7.44 12 12 C13.32 13.35 14.64 14.69 16 16 C11.73 15.53 9.86 13 7 10 C6.01 9.34 5.02 8.68 4 8 C2.22 5.34 1.01 3.04 0 0 Z " fill="#6316E2" transform="translate(326,520)"/>
<path d="M0 0 C0.99 0.33 1.98 0.66 3 1 C1.4 3.13 -0.2 5.25 -1.81 7.38 C-2.26 7.98 -2.72 8.58 -3.18 9.2 C-5.31 12 -7.05 14.03 -10 16 C-10 11.68 -7.87 10.07 -5 7 C-4.34 7 -3.68 7 -3 7 C-2.69 6.22 -2.38 5.43 -2.06 4.62 C-1 2 -1 2 0 0 Z " fill="#6114DE" transform="translate(566,433)"/>
<path d="M0 0 C-1.59 3.17 -4.41 3.88 -7.57 5.25 C-11.12 6.35 -13.43 5.91 -17 5 C-13.98 2.98 -11.37 1.97 -7.94 0.81 C-6.87 0.45 -5.81 0.08 -4.71 -0.29 C-2 -1 -2 -1 0 0 Z " fill="#6D30D3" transform="translate(999,294)"/>
<path d="M0 0 C-0.33 0.66 -0.66 1.32 -1 2 C-2.75 2.55 -2.75 2.55 -5 3 C-6.21 3.3 -6.21 3.3 -7.44 3.61 C-8.28 3.8 -9.13 3.99 -10 4.19 C-11.27 4.49 -11.27 4.49 -12.56 4.79 C-15.37 5.03 -16.64 4.47 -19 3 C-16.96 2.49 -14.92 1.99 -12.88 1.5 C-11.74 1.22 -10.6 0.94 -9.43 0.66 C-6.19 0.04 -3.29 -0.12 0 0 Z " fill="#671CDB" transform="translate(1234,481)"/>
<path d="M0 0 C0.33 0.66 0.66 1.32 1 2 C3.29 2.31 5.56 2.38 7.87 2.46 C10 3 10 3 11.29 5.04 C11.52 5.69 11.76 6.33 12 7 C9.39 6.38 6.79 5.76 4.19 5.12 C3.45 4.95 2.71 4.78 1.95 4.6 C-1.5 3.76 -4.02 2.99 -7 1 C-3.53 0.5 -3.53 0.5 0 0 Z " fill="#CFAEFA" transform="translate(734,446)"/>
<path d="M0 0 C0.66 0 1.32 0 2 0 C0.53 3.42 -1.38 5.56 -4.06 8.12 C-6.92 10.78 -6.92 10.78 -9 14 C-9.66 14 -10.32 14 -11 14 C-10.67 12.35 -10.34 10.7 -10 9 C-9.01 8.67 -8.02 8.34 -7 8 C-6.67 7.34 -6.34 6.68 -6 6 C-5.34 6 -4.68 6 -4 6 C-3.57 5.07 -3.57 5.07 -3.12 4.12 C-2 2 -2 2 0 0 Z " fill="#520EC9" transform="translate(1059,305)"/>
<path d="M0 0 C0.66 0.33 1.32 0.66 2 1 C1.45 5.18 -0.9 7.6 -3.56 10.75 C-4.8 12.23 -4.8 12.23 -6.07 13.73 C-6.7 14.48 -7.34 15.23 -8 16 C-8 12.56 -7.2 11.25 -5.5 8.31 C-5.04 7.5 -4.57 6.7 -4.09 5.86 C-3.73 5.25 -3.37 4.63 -3 4 C-2.34 4 -1.68 4 -1 4 C-0.67 2.68 -0.34 1.36 0 0 Z " fill="#EDE4F8" transform="translate(1182,289)"/>
<path d="M0 0 C3.52 -0.08 6.62 -0.04 10 1 C10 1.66 10 2.32 10 3 C10.99 2.67 11.98 2.34 13 2 C13.33 2.99 13.66 3.98 14 5 C14.99 5.33 15.98 5.66 17 6 C11.94 5.22 6.98 4.14 2 3 C2 2.34 2 1.68 2 1 C1.34 0.67 0.68 0.34 0 0 Z " fill="#6C27DB" transform="translate(532,574)"/>
<path d="M0 0 C4.56 1.59 8.31 3.99 12.31 6.62 C12.96 7.05 13.6 7.47 14.27 7.9 C15.85 8.93 17.42 9.96 19 11 C18.34 11.66 17.68 12.32 17 13 C16.36 12.54 15.72 12.08 15.06 11.61 C10.16 8.13 5.28 4.87 0 2 C0 1.34 0 0.68 0 0 Z " fill="#5D18D5" transform="translate(904,522)"/>
<path d="M0 0 C-0.66 0.66 -1.32 1.32 -2 2 C-2.91 1.53 -3.82 1.05 -4.75 0.56 C-9.92 -1.7 -15.43 -1.73 -21 -2 C-21 -2.33 -21 -2.66 -21 -3 C-12.91 -4.26 -7.43 -3.42 0 0 Z " fill="#4B09C2" transform="translate(856,496)"/>
<path d="M0 0 C0.85 0.33 0.85 0.33 1.71 0.67 C0.47 1.66 -0.78 2.63 -2.04 3.61 C-2.74 4.15 -3.43 4.7 -4.15 5.26 C-6.28 6.66 -7.83 7.11 -10.29 7.67 C-11.77 8.66 -11.77 8.66 -13.29 9.67 C-11.84 6.1 -10.09 4.48 -6.91 2.36 C-6.14 1.82 -5.37 1.29 -4.58 0.74 C-2.29 -0.33 -2.29 -0.33 0 0 Z " fill="#6917EC" transform="translate(675.2890625,451.33203125)"/>
<path d="M0 0 C7.6 -0.39 13.84 0.39 21 3 C20.34 3.66 19.68 4.32 19 5 C18.67 4.67 18.34 4.34 18 4 C16.32 3.77 14.63 3.59 12.94 3.44 C11.56 3.31 11.56 3.31 10.15 3.18 C9.09 3.09 9.09 3.09 8 3 C8 2.34 8 1.68 8 1 C5.36 1 2.72 1 0 1 C0 0.67 0 0.34 0 0 Z " fill="#6D12F1" transform="translate(711,446)"/>
<path d="M0 0 C0.66 0 1.32 0 2 0 C0.44 3.52 -1.69 6.27 -4.12 9.25 C-4.85 10.14 -5.57 11.03 -6.32 11.95 C-6.87 12.63 -7.43 13.3 -8 14 C-8.33 12.68 -8.66 11.36 -9 10 C-8.34 9.67 -7.68 9.34 -7 9 C-6.67 8.01 -6.34 7.02 -6 6 C-5.01 6 -4.02 6 -3 6 C-2.67 4.68 -2.34 3.36 -2 2 C-1.34 2 -0.68 2 0 2 C0 1.34 0 0.68 0 0 Z " fill="#5F11DC" transform="translate(671,297)"/>
<path d="M0 0 C-1.98 1.65 -3.96 3.3 -6 5 C-6 4.34 -6 3.68 -6 3 C-8.64 3.99 -11.28 4.98 -14 6 C-14.66 5.34 -15.32 4.68 -16 4 C-13.9 3.13 -11.8 2.28 -9.69 1.44 C-8.52 0.96 -7.34 0.49 -6.14 -0 C-3 -1 -3 -1 0 0 Z " fill="#6D32CC" transform="translate(1109,256)"/>
<path d="M0 0 C3.73 0.5 5.81 0.87 9 3 C6.48 4.26 4.69 4.1 1.88 4.06 C0.96 4.05 0.05 4.04 -0.88 4.04 C-1.58 4.02 -2.28 4.01 -3 4 C-2.34 3.67 -1.68 3.34 -1 3 C-0.67 2.01 -0.34 1.02 0 0 Z " fill="#7A32DF" transform="translate(836,489)"/>
<path d="M0 0 C0.33 0 0.66 0 1 0 C1.37 7.31 0.82 13.21 -2 20 C-2.66 20 -3.32 20 -4 20 C-3.69 18.35 -3.38 16.71 -3.06 15.06 C-2.89 14.15 -2.71 13.23 -2.54 12.29 C-2 10 -2 10 -1 9 C-0.77 7.49 -0.59 5.96 -0.44 4.44 C-0.35 3.61 -0.27 2.78 -0.18 1.93 C-0.12 1.3 -0.06 0.66 0 0 Z " fill="#5B0BDF" transform="translate(1404,448)"/>
<path d="M0 0 C-1.54 3.68 -3.78 5.99 -6.62 8.75 C-7.85 9.95 -7.85 9.95 -9.1 11.17 C-9.73 11.78 -10.35 12.38 -11 13 C-11 8.08 -7.01 5.09 -3.81 1.62 C-2 0 -2 0 0 0 Z " fill="#540ED1" transform="translate(1046,321)"/>
<path d="M0 0 C0.66 0.66 1.32 1.32 2 2 C1.35 2.59 1.35 2.59 0.69 3.19 C-1.14 5 -1.14 5 -2.44 7.62 C-4 10 -4 10 -6.19 10.81 C-6.79 10.87 -7.38 10.94 -8 11 C-5.71 6.91 -3.04 3.54 0 0 Z " fill="#6B16E5" transform="translate(1217,250)"/>
<path d="M0 0 C-0.99 0.33 -1.98 0.66 -3 1 C-3 1.66 -3 2.32 -3 3 C-6.3 3.33 -9.6 3.66 -13 4 C-13 3.34 -13 2.68 -13 2 C-8.5 -0.25 -4.92 -0.17 0 0 Z " fill="#F6EFFD" transform="translate(1004,529)"/>
<path d="M0 0 C2.33 2.14 3.82 4.19 5.25 7 C5.78 8.02 5.78 8.02 6.33 9.06 C7 11 7 11 6 14 C5.67 12.68 5.34 11.36 5 10 C4.34 10 3.68 10 3 10 C2.67 8.68 2.34 7.36 2 6 C1.34 6 0.68 6 0 6 C0 4.02 0 2.04 0 0 Z " fill="#762AE5" transform="translate(314,499)"/>
<path d="M0 0 C0.66 0.33 1.32 0.66 2 1 C-2.95 7.44 -2.95 7.44 -8 14 C-8.33 13.01 -8.66 12.02 -9 11 C-6.57 6.7 -3.58 3.38 0 0 Z " fill="#6212D9" transform="translate(604,385)"/>
<path d="M0 0 C2.31 0.33 4.62 0.66 7 1 C7 1.33 7 1.66 7 2 C5.99 2.13 4.97 2.27 3.93 2.4 C2.58 2.58 1.23 2.76 -0.12 2.94 C-0.79 3.02 -1.46 3.11 -2.14 3.2 C-6.11 3.73 -10.06 4.32 -14 5 C-13.01 4.67 -12.02 4.34 -11 4 C-11 3.34 -11 2.68 -11 2 C-7.37 2 -3.74 2 0 2 C0 1.34 0 0.68 0 0 Z " fill="#8E41FA" transform="translate(552,332)"/>
<path d="M0 0 C0 1.65 0 3.3 0 5 C-0.99 5.33 -1.98 5.66 -3 6 C-3.99 5.34 -4.98 4.68 -6 4 C-4.68 3.67 -3.36 3.34 -2 3 C-5.3 2.67 -8.6 2.34 -12 2 C-12 1.67 -12 1.34 -12 1 C-7.94 0.23 -4.14 -0.1 0 0 Z " fill="#5C0AE2" transform="translate(625,323)"/>
<path d="M0 0 C2.47 0.5 2.47 0.5 5 1 C5 1.66 5 2.32 5 3 C6.32 3 7.64 3 9 3 C9 3.99 9 4.98 9 6 C9.99 6.33 10.98 6.66 12 7 C11.34 7.66 10.68 8.32 10 9 C8.33 7.69 6.66 6.38 5 5.06 C4.07 4.33 3.14 3.6 2.19 2.85 C1.47 2.24 0.74 1.63 0 1 C0 0.67 0 0.34 0 0 Z " fill="#7121E1" transform="translate(1231,430)"/>
<path d="M0 0 C0 3 0 3 -2.31 5.44 C-3.2 6.28 -4.09 7.13 -5 8 C-6.03 9.31 -7.04 10.64 -8 12 C-8.99 11.67 -9.98 11.34 -11 11 C-7.37 7.37 -3.74 3.74 0 0 Z " fill="#6515E2" transform="translate(393,416)"/>
<path d="M0 0 C1.2 0.15 1.2 0.15 2.42 0.31 C3.03 0.39 3.63 0.48 4.25 0.56 C4.25 0.89 4.25 1.22 4.25 1.56 C-1.42 2.79 -6.99 2.65 -12.75 2.56 C-8.28 0.17 -5.05 -0.67 0 0 Z " fill="#6E1DED" transform="translate(606.75,330.4375)"/>
<path d="M0 0 C-2.88 1.6 -5.3 2.37 -8.56 2.75 C-9.71 2.9 -9.71 2.9 -10.88 3.05 C-13 3 -13 3 -16 1 C-10.64 -0.13 -5.45 -0.1 0 0 Z " fill="#F9F4FE" transform="translate(613,327)"/>
<path d="M0 0 C0.66 0 1.32 0 2 0 C0.52 3.45 -1.44 5.65 -4.12 8.25 C-4.85 8.96 -5.57 9.66 -6.32 10.39 C-6.87 10.92 -7.43 11.45 -8 12 C-8.66 11.67 -9.32 11.34 -10 11 C-7.31 7.41 -4.52 4.76 -1 2 C-0.67 1.34 -0.34 0.68 0 0 Z " fill="#4D0CBD" transform="translate(1086,276)"/>
<path d="M0 0 C0.99 0.5 0.99 0.5 2 1 C2.33 1.99 2.66 2.98 3 4 C3.66 4.33 4.32 4.66 5 5 C6.97 8.06 7.2 10.4 7 14 C6.77 13.48 6.55 12.97 6.31 12.44 C4.8 9.63 2.97 7.21 1.02 4.68 C0 3 0 3 0 0 Z " fill="#6719E2" transform="translate(952,537)"/>
<path d="M0 0 C0.66 0.99 1.32 1.98 2 3 C-0.31 5.64 -2.62 8.28 -5 11 C-5.66 10.01 -6.32 9.02 -7 8 C-4.69 5.36 -2.38 2.72 0 0 Z " fill="#E0CDF9" transform="translate(1078,287)"/>
<path d="M0 0 C0.66 0 1.32 0 2 0 C2 3.96 2 7.92 2 12 C1.67 11.01 1.34 10.02 1 9 C0.34 9 -0.32 9 -1 9 C-0.67 6.03 -0.34 3.06 0 0 Z " fill="#550BDC" transform="translate(924,447)"/>
<path d="M0 0 C1.81 0.12 1.81 0.12 4 1 C7 6.04 7 6.04 7 9 C7.66 9 8.32 9 9 9 C9.33 9.99 9.66 10.98 10 12 C9.01 12.5 9.01 12.5 8 13 C6.66 11.02 5.33 9.04 4 7.06 C3.62 6.5 3.24 5.93 2.84 5.35 C0 1.11 0 1.11 0 0 Z " fill="#6918DD" transform="translate(875,425)"/>
<path d="M0 0 C0.66 0 1.32 0 2 0 C0.59 3.22 -1.1 5.32 -3.62 7.75 C-4.57 8.67 -4.57 8.67 -5.54 9.61 C-6.02 10.07 -6.5 10.53 -7 11 C-7.66 10.34 -8.32 9.68 -9 9 C-8.34 9 -7.68 9 -7 9 C-6.67 8.01 -6.34 7.02 -6 6 C-4.56 4.31 -4.56 4.31 -3 3 C-2.34 3 -1.68 3 -1 3 C-0.67 2.01 -0.34 1.02 0 0 Z " fill="#4B0CC1" transform="translate(1072,291)"/>
<path d="M0 0 C0 3 0 3 -1.61 4.86 C-2.32 5.48 -3.02 6.11 -3.75 6.75 C-4.45 7.38 -5.14 8.02 -5.86 8.67 C-6.92 9.33 -6.92 9.33 -8 10 C-9.32 9.67 -10.64 9.34 -12 9 C-8.04 6.03 -4.08 3.06 0 0 Z " fill="#7018E9" transform="translate(1413,507)"/>
<path d="M0 0 C2.97 0.99 5.94 1.98 9 3 C7.35 4.65 5.7 6.3 4 8 C3.34 7.67 2.68 7.34 2 7 C2.33 5.68 2.66 4.36 3 3 C2.01 2.67 1.02 2.34 0 2 C0 1.34 0 0.68 0 0 Z " fill="#8442E6" transform="translate(829,485)"/>
<path d="M0 0 C0.99 0.33 1.98 0.66 3 1 C1.87 4.4 1.03 5.22 -2 7 C-2.99 6.67 -3.98 6.34 -5 6 C-3.35 4.02 -1.7 2.04 0 0 Z " fill="#510AC9" transform="translate(1159,324)"/>
<path d="M0 0 C-0.33 0.99 -0.66 1.98 -1 3 C-7.05 3.98 -7.05 3.98 -9 4 C-9.66 3.34 -10.32 2.68 -11 2 C-3.38 0 -3.38 0 0 0 Z " fill="#761BF0" transform="translate(1220,592)"/>
<path d="M0 0 C0.99 0.5 0.99 0.5 2 1 C1.67 1.99 1.34 2.98 1 4 C3.31 4 5.62 4 8 4 C7.34 5.32 6.68 6.64 6 8 C4.02 7.01 2.04 6.02 0 5 C0 3.35 0 1.7 0 0 Z " fill="#6F24E4" transform="translate(485,541)"/>
<path d="M0 0 C0.66 0 1.32 0 2 0 C2 0.66 2 1.32 2 2 C3.32 2 4.64 2 6 2 C6 2.66 6 3.32 6 4 C8.97 4.5 8.97 4.5 12 5 C10.27 6.14 10.27 6.14 8 7 C5.86 6.17 5.86 6.17 3.75 4.75 C3.04 4.29 2.34 3.83 1.61 3.36 C1.08 2.91 0.55 2.46 0 2 C0 1.34 0 0.68 0 0 Z " fill="#6C0EE9" transform="translate(430,534)"/>
<path d="M0 0 C0 0.66 0 1.32 0 2 C-4.07 4.04 -6.59 4.03 -11 3 C-6.99 0.33 -4.83 0 0 0 Z " fill="#701BED" transform="translate(582,336)"/>
<path d="M0 0 C0.66 0 1.32 0 2 0 C0.51 4.59 -1.85 7.44 -5 11 C-5.33 10.34 -5.66 9.68 -6 9 C-5.05 7.49 -4.09 6 -3.12 4.5 C-2.59 3.66 -2.06 2.83 -1.51 1.97 C-0.76 0.99 -0.76 0.99 0 0 Z " fill="#5C0CDD" transform="translate(534,475)"/>
<path d="M0 0 C0 3 0 3 -1.75 5.04 C-2.49 5.75 -3.24 6.46 -4 7.19 C-4.74 7.9 -5.49 8.62 -6.25 9.36 C-6.83 9.9 -7.4 10.44 -8 11 C-8.33 10.34 -8.66 9.68 -9 9 C-8.34 8.01 -7.68 7.02 -7 6 C-6.34 6 -5.68 6 -5 6 C-5 5.34 -5 4.68 -5 4 C-3.37 2.62 -1.71 1.28 0 0 Z " fill="#5C03E7" transform="translate(950,419)"/>
<path d="M0 0 C0.66 0.33 1.32 0.66 2 1 C0.88 2.32 -0.25 3.63 -1.38 4.94 C-2 5.67 -2.63 6.4 -3.27 7.15 C-5 9 -5 9 -7 10 C-5.33 6.06 -2.77 3.21 0 0 Z " fill="#540FCB" transform="translate(1135,355)"/>
<path d="M0 0 C-0.33 0.66 -0.66 1.32 -1 2 C-7.04 3.37 -7.04 3.37 -10.44 2.06 C-10.95 1.71 -11.47 1.36 -12 1 C-8.02 -0.33 -4.15 -0.07 0 0 Z " fill="#6928D3" transform="translate(1161,498)"/>
<path d="M0 0 C-3 2 -4.71 2.49 -8.19 3.12 C-9.54 3.38 -9.54 3.38 -10.92 3.63 C-11.61 3.75 -12.29 3.88 -13 4 C-12.67 3.01 -12.34 2.02 -12 1 C-7.95 0.02 -4.16 -0.08 0 0 Z " fill="#5B16CD" transform="translate(1179,494)"/>
<path d="M0 0 C0.66 0.33 1.32 0.66 2 1 C0.9 2.32 -0.2 3.63 -1.31 4.94 C-1.93 5.67 -2.54 6.4 -3.18 7.15 C-5 9 -5 9 -8 10 C-6.35 5.71 -3.26 3.12 0 0 Z " fill="#FBF7FE" transform="translate(942,430)"/>
<path d="M0 0 C1.94 0.69 1.94 0.69 4 2 C4.75 4.62 4.75 4.62 5 7 C5.66 7 6.32 7 7 7 C7.33 7.99 7.66 8.98 8 10 C7.01 10.5 7.01 10.5 6 11 C4.99 9.55 4 8.09 3 6.62 C2.16 5.41 2.16 5.41 1.31 4.16 C0 2 0 2 0 0 Z " fill="#6914DE" transform="translate(868,414)"/>
<path d="M0 0 C3 1 3 1 4.17 2.74 C4.5 3.45 4.84 4.15 5.19 4.88 C5.53 5.57 5.88 6.27 6.23 6.99 C7 9 7 9 7 12 C5.83 10.38 4.66 8.75 3.5 7.12 C2.85 6.22 2.2 5.32 1.53 4.38 C0 2 0 2 0 0 Z " fill="#620DDD" transform="translate(834,365)"/>
<path d="M0 0 C-2.52 2.52 -4.14 2.56 -7.62 3.12 C-8.63 3.29 -9.63 3.46 -10.66 3.63 C-11.82 3.81 -11.82 3.81 -13 4 C-11.73 1.46 -10.8 1.31 -8.19 0.31 C-7.5 0.04 -6.81 -0.23 -6.11 -0.51 C-3.71 -1.07 -2.31 -0.77 0 0 Z " fill="#B48EF6" transform="translate(762,361)"/>
<path d="M0 0 C0.66 0 1.32 0 2 0 C3.29 1.75 3.29 1.75 4.62 4 C5.07 4.74 5.52 5.49 5.98 6.25 C6.31 6.83 6.65 7.4 7 8 C6.34 8.66 5.68 9.32 5 10 C4.16 8.71 3.33 7.42 2.5 6.12 C2.04 5.41 1.57 4.69 1.09 3.95 C0 2 0 2 0 0 Z " fill="#640DDE" transform="translate(827,355)"/>
<path d="M0 0 C-0.64 0.1 -1.28 0.21 -1.94 0.31 C-2.62 0.54 -3.3 0.77 -4 1 C-4.33 1.99 -4.66 2.98 -5 4 C-7.97 4 -10.94 4 -14 4 C-11.37 2.25 -9.38 1.31 -6.44 0.31 C-5.65 0.04 -4.87 -0.23 -4.06 -0.51 C-2 -1 -2 -1 0 0 Z " fill="#854FDA" transform="translate(969,304)"/>
<path d="M0 0 C1 2 1 2 0.31 4.44 C-1.11 7.21 -2.4 8.35 -5 10 C-4.5 5.6 -2.91 3.29 0 0 Z " fill="#6615E4" transform="translate(1208,261)"/>
<path d="M0 0 C0.66 0 1.32 0 2 0 C2 0.66 2 1.32 2 2 C3.65 2 5.3 2 7 2 C7 2.66 7 3.32 7 4 C7.66 4.33 8.32 4.66 9 5 C6.36 4.67 3.72 4.34 1 4 C1 3.34 1 2.68 1 2 C0.34 1.67 -0.32 1.34 -1 1 C-0.67 0.67 -0.34 0.34 0 0 Z " fill="#752EE2" transform="translate(556,579)"/>
<path d="M0 0 C3.12 -0.19 3.12 -0.19 6 0 C6 0.66 6 1.32 6 2 C6.66 2.33 7.32 2.66 8 3 C4.7 3 1.4 3 -2 3 C-1.34 2.01 -0.68 1.02 0 0 Z " fill="#E2D1FB" transform="translate(985,531)"/>
<path d="M0 0 C-3.7 2.06 -7.06 3.37 -11.31 2.56 C-11.87 2.38 -12.43 2.19 -13 2 C-8.46 0.55 -4.82 -0.24 0 0 Z " fill="#5919CB" transform="translate(1143,502)"/>
<path d="M0 0 C-1 2 -1 2 -3.25 3.19 C-6.3 4.09 -7.98 3.86 -11 3 C-3.71 -1.86 -3.71 -1.86 0 0 Z " fill="#7C40D6" transform="translate(981,300)"/>
<path d="M0 0 C-0.33 0.99 -0.66 1.98 -1 3 C-3.9 4.45 -5.74 5 -9 5 C-9 4.34 -9 3.68 -9 3 C-2.25 0 -2.25 0 0 0 Z " fill="#F5E8FE" transform="translate(931,223)"/>
<path d="M0 0 C2.31 0.33 4.62 0.66 7 1 C3.47 3.12 0.06 3.53 -4 4 C-4 3.34 -4 2.68 -4 2 C-2.68 2 -1.36 2 0 2 C0 1.34 0 0.68 0 0 Z " fill="#7116F6" transform="translate(1191,572)"/>
<path d="M0 0 C0.33 0 0.66 0 1 0 C1.32 5.26 0.67 8.45 -2 13 C-3.19 9.57 -2.8 7.62 -1.56 4.25 C-1.28 3.45 -0.99 2.65 -0.69 1.83 C-0.46 1.22 -0.24 0.62 0 0 Z " fill="#CFABFB" transform="translate(314,453)"/>
<path d="M0 0 C1.98 0.99 1.98 0.99 4 2 C4 2.99 4 3.98 4 5 C4.99 5.33 5.98 5.66 7 6 C6.67 6.99 6.34 7.98 6 9 C3.6 6.12 1.53 3.44 0 0 Z " fill="#6D19E0" transform="translate(855,396)"/>
<path d="M0 0 C0.99 0.5 0.99 0.5 2 1 C2.63 3.07 2.63 3.07 3.12 5.56 C3.29 6.39 3.46 7.22 3.63 8.07 C3.75 8.7 3.88 9.34 4 10 C3.01 10.5 3.01 10.5 2 11 C0.2 7.17 -0.2 4.22 0 0 Z " fill="#711FE7" transform="translate(894,278)"/>
<path d="M0 0 C0.99 0.33 1.98 0.66 3 1 C1.35 2.65 -0.3 4.3 -2 6 C-2.99 5.67 -3.98 5.34 -5 5 C-3.35 3.35 -1.7 1.7 0 0 Z " fill="#D5B9F7" transform="translate(1096,268)"/>
<path d="M0 0 C5.75 0.88 5.75 0.88 8 2 C8 2.66 8 3.32 8 4 C5.69 3.67 3.38 3.34 1 3 C0.67 2.01 0.34 1.02 0 0 Z " fill="#6517E3" transform="translate(502,607)"/>
<path d="M0 0 C0 0.66 0 1.32 0 2 C0.66 2.33 1.32 2.66 2 3 C-1.68 2.4 -5.35 1.75 -9 1 C-9 0.67 -9 0.34 -9 0 C-3.38 -1.12 -3.38 -1.12 0 0 Z " fill="#7F38E9" transform="translate(576,584)"/>
<path d="M0 0 C5.75 0.75 5.75 0.75 8 3 C5.39 3.93 4.36 4.15 1.75 3.06 C1.17 2.71 0.6 2.36 0 2 C0 1.34 0 0.68 0 0 Z " fill="#6F1FE3" transform="translate(457,548)"/>
<path d="M0 0 C2.93 2.85 5.64 5.65 8 9 C4.64 7.56 2.37 5.79 0 3 C0 2.01 0 1.02 0 0 Z " fill="#5B12D8" transform="translate(966,522)"/>
<path d="M0 0 C4.75 0.43 6.92 1.33 10 5 C9.67 5.66 9.34 6.32 9 7 C7.5 6.03 6 5.04 4.5 4.06 C3.66 3.52 2.83 2.97 1.97 2.41 C1.32 1.94 0.67 1.48 0 1 C0 0.67 0 0.34 0 0 Z " fill="#6C11E7" transform="translate(412,524)"/>
<path d="M0 0 C2.11 1.74 2.96 2.86 3.81 5.5 C4 8 4 8 2 11 C0.81 7.12 0 4.08 0 0 Z " fill="#B78DF6" transform="translate(959,490)"/>
<path d="M0 0 C-3.3 0.66 -6.6 1.32 -10 2 C-10 1.34 -10 0.68 -10 0 C-4.5 -2.25 -4.5 -2.25 0 0 Z " fill="#630CE4" transform="translate(1245,480)"/>
<path d="M0 0 C0.66 0.33 1.32 0.66 2 1 C1.98 1.78 1.96 2.57 1.94 3.38 C1.81 5.98 1.81 5.98 3 8 C0 7 0 7 -1.69 3.94 C-2.12 2.97 -2.55 2 -3 1 C-2.01 0.67 -1.02 0.34 0 0 Z " fill="#5A10CA" transform="translate(910,470)"/>
<path d="M0 0 C0.66 0 1.32 0 2 0 C0.51 3.8 -1.76 5.61 -5 8 C-5.33 7.01 -5.66 6.02 -6 5 C-5.01 5 -4.02 5 -3 5 C-3 4.34 -3 3.68 -3 3 C-2.34 3 -1.68 3 -1 3 C-0.67 2.01 -0.34 1.02 0 0 Z " fill="#7729EB" transform="translate(938,431)"/>
<path d="M0 0 C0.66 0.99 1.32 1.98 2 3 C0.02 3.99 0.02 3.99 -2 5 C-2 5.99 -2 6.98 -2 8 C-2.99 7.67 -3.98 7.34 -5 7 C-3.35 4.69 -1.7 2.38 0 0 Z " fill="#6B20E2" transform="translate(381,428)"/>
<path d="M0 0 C1.32 0.33 2.64 0.66 4 1 C4 1.66 4 2.32 4 3 C4.99 2.67 5.98 2.34 7 2 C7.33 2.99 7.66 3.98 8 5 C4.76 4.65 3.38 4.44 1.19 1.94 C0.8 1.3 0.4 0.66 0 0 Z " fill="#620FDB" transform="translate(1226,425)"/>
<path d="M0 0 C0.33 0.99 0.66 1.98 1 3 C-0.4 5.26 -2.2 7.02 -4 9 C-4.66 8.67 -5.32 8.34 -6 8 C-4.02 5.36 -2.04 2.72 0 0 Z " fill="#E4CCF9" transform="translate(578,421)"/>
<path d="M0 0 C0.33 0.66 0.66 1.32 1 2 C-0.65 4.31 -2.3 6.62 -4 9 C-4.33 7.68 -4.66 6.36 -5 5 C-4.01 4.67 -3.02 4.34 -2 4 C-0.79 2 -0.79 2 0 0 Z " fill="#5F12DF" transform="translate(587,407)"/>
<path d="M0 0 C3.34 0.56 6.03 1.35 9 3 C9 3.66 9 4.32 9 5 C6 4 3 3 0 2 C0 1.34 0 0.68 0 0 Z " fill="#5E0FDB" transform="translate(1318,375)"/>
<path d="M0 0 C0.66 0.33 1.32 0.66 2 1 C0.35 2.98 -1.3 4.96 -3 7 C-3.99 6.67 -4.98 6.34 -6 6 C-4.02 4.02 -2.04 2.04 0 0 Z " fill="#EBDCFB" transform="translate(1044,324)"/>
<path d="M0 0 C3.38 1.19 5.65 2.28 8 5 C7.67 5.66 7.34 6.32 7 7 C5.83 6.22 4.66 5.42 3.5 4.62 C2.85 4.18 2.2 3.74 1.53 3.29 C1.03 2.86 0.52 2.44 0 2 C0 1.34 0 0.68 0 0 Z " fill="#5C10E0" transform="translate(343,538)"/>
<path d="M0 0 C0.66 0 1.32 0 2 0 C1.69 1.94 1.69 1.94 1 4 C0.01 4.33 -0.98 4.66 -2 5 C-2 5.66 -2 6.32 -2 7 C-2.66 6.67 -3.32 6.34 -4 6 C-2.73 3.96 -1.39 1.96 0 0 Z " fill="#7D26EF" transform="translate(1442,476)"/>
<path d="M0 0 C0.66 0.33 1.32 0.66 2 1 C1.34 2.32 0.68 3.64 0 5 C-0.99 4.67 -1.98 4.34 -3 4 C-3 3.01 -3 2.02 -3 1 C-2.01 0.67 -1.02 0.34 0 0 Z " fill="#F0E7FC" transform="translate(1274,466)"/>
<path d="M0 0 C1.98 0 3.96 0 6 0 C6.66 1.32 7.32 2.64 8 4 C5.65 3.4 3.31 2.73 1 2 C0.67 1.34 0.34 0.68 0 0 Z " fill="#D5BAFB" transform="translate(738,449)"/>
<path d="M0 0 C0 0.66 0 1.32 0 2 C-3.3 2.33 -6.6 2.66 -10 3 C-6.19 0.46 -4.53 -0.12 0 0 Z " fill="#C4A7F9" transform="translate(694,443)"/>
</svg>
